g Object2264
v 0.2249436 -0.4716885 0.5464828
v 0.01394411 -0.2406421 0.5609141
v 0.1096239 0.056718 0.5789527
v 0.5316235 -0.4053801 0.5500913
v 0.627304 -0.1080188 0.5681301
v 0.4163029 0.1230302 0.5825601
v 0.5316235 -0.4053801 0.5500913
v 0.6555844 -0.4342164 -0.1012063
v 0.1649395 -0.5403084 -0.1069779
v 0.2249436 -0.4716885 0.5464828
v 0.627304 -0.1080188 0.5681301
v 0.8086563 0.04151312 -0.07234742
v 0.6555844 -0.4342164 -0.1012063
v 0.5316235 -0.4053801 0.5500913
v 0.4163029 0.1230302 0.5825601
v 0.4710854 0.4111572 -0.04925949
v 0.8086563 0.04151312 -0.07234742
v 0.627304 -0.1080188 0.5681301
v 0.1096239 0.056718 0.5789527
v -0.01955404 0.3050672 -0.05503298
v 0.4710854 0.4111572 -0.04925949
v 0.4163029 0.1230302 0.5825601
v 0.01394411 -0.2406421 0.5609141
v -0.1726267 -0.1706627 -0.08389188
v -0.01955404 0.3050672 -0.05503298
v 0.1096239 0.056718 0.5789527
v 0.2249436 -0.4716885 0.5464828
v 0.1649395 -0.5403084 -0.1069779
v -0.1726267 -0.1706627 -0.08389188
v 0.01394411 -0.2406421 0.5609141
v -0.05695505 -0.4870875 0.3164474
v -0.228193 -0.2995804 0.3281593
v -0.1505431 -0.05825599 0.3427986
v 0.1919332 -0.4332746 0.319376
v 0.2695832 -0.191949 0.3340154
v 0.098344 -0.004439506 0.3457261
v 0.1919332 -0.4332746 0.319376
v 0.2925343 -0.456677 -0.2091889
v -0.1056517 -0.5427756 -0.2138731
v -0.05695505 -0.4870875 0.3164474
v 0.2695832 -0.191949 0.3340154
v 0.416761 -0.07059555 -0.1857682
v 0.2925343 -0.456677 -0.2091889
v 0.1919332 -0.4332746 0.319376
v 0.098344 -0.004439506 0.3457261
v 0.1428029 0.2293919 -0.1670314
v 0.416761 -0.07059555 -0.1857682
v 0.2695832 -0.191949 0.3340154
v -0.1505431 -0.05825599 0.3427986
v -0.2553786 0.1432937 -0.1717167
v 0.1428029 0.2293919 -0.1670314
v 0.098344 -0.004439506 0.3457261
v -0.228193 -0.2995804 0.3281593
v -0.3796059 -0.2427881 -0.1951372
v -0.2553786 0.1432937 -0.1717167
v -0.1505431 -0.05825599 0.3427986
v -0.05695505 -0.4870875 0.3164474
v -0.1056517 -0.5427756 -0.2138731
v -0.3796059 -0.2427881 -0.1951372
v -0.228193 -0.2995804 0.3281593
v -0.6316884 0.06941102 0.2045874
v -0.7322074 0.2172652 0.2042682
v -0.6545271 0.3775833 0.216976
v -0.4534896 0.08186995 0.217614
v -0.3758096 0.24219 0.2303215
v -0.4763291 0.3900465 0.2300017
v -0.4534896 0.08186995 0.217614
v -0.3627484 0.04974129 -0.1487389
v -0.6478416 0.02980492 -0.1695791
v -0.6316884 0.06941102 0.2045874
v -0.3758096 0.24219 0.2303215
v -0.2384738 0.306226 -0.1284097
v -0.3627484 0.04974129 -0.1487389
v -0.4534896 0.08186995 0.217614
v -0.4763291 0.3900465 0.2300017
v -0.3992907 0.5427755 -0.1289198
v -0.2384738 0.306226 -0.1284097
v -0.3758096 0.24219 0.2303215
v -0.6545271 0.3775833 0.216976
v -0.6843807 0.5228368 -0.1497605
v -0.3992907 0.5427755 -0.1289198
v -0.4763291 0.3900465 0.2300017
v -0.7322074 0.2172652 0.2042682
v -0.8086563 0.266354 -0.1700901
v -0.6843807 0.5228368 -0.1497605
v -0.6545271 0.3775833 0.216976
v -0.6316884 0.06941102 0.2045874
v -0.6478416 0.02980492 -0.1695791
v -0.8086563 0.266354 -0.1700901
v -0.7322074 0.2172652 0.2042682
vt 0.5322266 0.7099609
vt 0.5244141 0.7099609
vt 0.5224609 0.7099609
vt 0.5380859 0.7099609
vt 0.5361328 0.7099609
vt 0.5283203 0.7099609
vt 0.5380859 0.6396484
vt 0.5429688 0.5820313
vt 0.5336914 0.5820313
vt 0.5327148 0.6396484
vt 0.5361328 0.6396484
vt 0.5395508 0.5820313
vt 0.5429688 0.5820313
vt 0.5380859 0.6396484
vt 0.5283203 0.6396484
vt 0.5268555 0.5820313
vt 0.5395508 0.5820313
vt 0.5361328 0.6396484
vt 0.5224609 0.6396484
vt 0.5180664 0.5820313
vt 0.5268555 0.5820313
vt 0.5283203 0.6396484
vt 0.5249023 0.6396484
vt 0.5214844 0.5820313
vt 0.5180664 0.5820313
vt 0.5224609 0.6396484
vt 0.5327148 0.6396484
vt 0.5336914 0.5820313
vt 0.5214844 0.5820313
vt 0.5249023 0.6396484
vt 0.5322266 0.7099609
vt 0.5244141 0.7099609
vt 0.5224609 0.7099609
vt 0.5380859 0.7099609
vt 0.5361328 0.7099609
vt 0.5283203 0.7099609
vt 0.5380859 0.6396484
vt 0.5429688 0.5820313
vt 0.5336914 0.5820313
vt 0.5327148 0.6396484
vt 0.5361328 0.6396484
vt 0.5395508 0.5820313
vt 0.5429688 0.5820313
vt 0.5380859 0.6396484
vt 0.5283203 0.6396484
vt 0.5268555 0.5820313
vt 0.5395508 0.5820313
vt 0.5361328 0.6396484
vt 0.5224609 0.6396484
vt 0.5180664 0.5820313
vt 0.5268555 0.5820313
vt 0.5283203 0.6396484
vt 0.5249023 0.6396484
vt 0.5214844 0.5820313
vt 0.5180664 0.5820313
vt 0.5224609 0.6396484
vt 0.5327148 0.6396484
vt 0.5336914 0.5820313
vt 0.5214844 0.5820313
vt 0.5249023 0.6396484
vt 0.5322266 0.7099609
vt 0.5244141 0.7099609
vt 0.5224609 0.7099609
vt 0.5380859 0.7099609
vt 0.5361328 0.7099609
vt 0.5283203 0.7099609
vt 0.5380859 0.6396484
vt 0.5429688 0.5820313
vt 0.5336914 0.5820313
vt 0.5327148 0.6396484
vt 0.5361328 0.6396484
vt 0.5395508 0.5820313
vt 0.5429688 0.5820313
vt 0.5380859 0.6396484
vt 0.5283203 0.6396484
vt 0.5268555 0.5820313
vt 0.5395508 0.5820313
vt 0.5361328 0.6396484
vt 0.5224609 0.6396484
vt 0.5180664 0.5820313
vt 0.5268555 0.5820313
vt 0.5283203 0.6396484
vt 0.5249023 0.6396484
vt 0.5214844 0.5820313
vt 0.5180664 0.5820313
vt 0.5224609 0.6396484
vt 0.5327148 0.6396484
vt 0.5336914 0.5820313
vt 0.5214844 0.5820313
vt 0.5249023 0.6396484
vn 0.001450539 -0.06100464 0.9980469
vn 0.001450539 -0.06100464 0.9980469
vn 0.001450539 -0.06100464 0.9980469
vn 0.001450539 -0.06100464 0.9980469
vn 0.001450539 -0.06100464 0.9980469
vn 0.001450539 -0.06100464 0.9980469
vn 0.2097168 -0.9741211 0.08306885
vn 0.2097168 -0.9741211 0.08306885
vn 0.2097168 -0.9741211 0.08306885
vn 0.2097168 -0.9741211 0.08306885
vn 0.9311523 -0.3110352 0.190918
vn 0.9311523 -0.3110352 0.190918
vn 0.9311523 -0.3110352 0.190918
vn 0.9311523 -0.3110352 0.190918
vn 0.7041016 0.6210938 0.3442383
vn 0.7041016 0.6210938 0.3442383
vn 0.7041016 0.6210938 0.3442383
vn 0.7041016 0.6210938 0.3442383
vn -0.1988525 0.8979492 0.392334
vn -0.1988525 0.8979492 0.392334
vn -0.1988525 0.8979492 0.392334
vn -0.1988525 0.8979492 0.392334
vn -0.9145508 0.2763672 0.2946777
vn -0.9145508 0.2763672 0.2946777
vn -0.9145508 0.2763672 0.2946777
vn -0.9145508 0.2763672 0.2946777
vn -0.7270508 -0.6728516 0.1374512
vn -0.7270508 -0.6728516 0.1374512
vn -0.7270508 -0.6728516 0.1374512
vn -0.7270508 -0.6728516 0.1374512
vn 0.001450539 -0.06100464 0.9980469
vn 0.001450539 -0.06100464 0.9980469
vn 0.001450539 -0.06100464 0.9980469
vn 0.001450539 -0.06100464 0.9980469
vn 0.001450539 -0.06100464 0.9980469
vn 0.001450539 -0.06100464 0.9980469
vn 0.2097168 -0.9741211 0.08306885
vn 0.2097168 -0.9741211 0.08306885
vn 0.2097168 -0.9741211 0.08306885
vn 0.2097168 -0.9741211 0.08306885
vn 0.9311523 -0.3110352 0.190918
vn 0.9311523 -0.3110352 0.190918
vn 0.9311523 -0.3110352 0.190918
vn 0.9311523 -0.3110352 0.190918
vn 0.7041016 0.6210938 0.3442383
vn 0.7041016 0.6210938 0.3442383
vn 0.7041016 0.6210938 0.3442383
vn 0.7041016 0.6210938 0.3442383
vn -0.1988525 0.8979492 0.392334
vn -0.1988525 0.8979492 0.392334
vn -0.1988525 0.8979492 0.392334
vn -0.1988525 0.8979492 0.392334
vn -0.9145508 0.2763672 0.2946777
vn -0.9145508 0.2763672 0.2946777
vn -0.9145508 0.2763672 0.2946777
vn -0.9145508 0.2763672 0.2946777
vn -0.7270508 -0.6728516 0.1374512
vn -0.7270508 -0.6728516 0.1374512
vn -0.7270508 -0.6728516 0.1374512
vn -0.7270508 -0.6728516 0.1374512
vn -0.06970215 -0.04522705 0.996582
vn -0.06970215 -0.04522705 0.996582
vn -0.06970215 -0.04522705 0.996582
vn -0.06970215 -0.04522705 0.996582
vn -0.06970215 -0.04522705 0.996582
vn -0.06970215 -0.04522705 0.996582
vn 0.06192017 -0.9926758 0.102417
vn 0.06192017 -0.9926758 0.102417
vn 0.06192017 -0.9926758 0.102417
vn 0.06192017 -0.9926758 0.102417
vn 0.862793 -0.4379883 0.2521973
vn 0.862793 -0.4379883 0.2521973
vn 0.862793 -0.4379883 0.2521973
vn 0.862793 -0.4379883 0.2521973
vn 0.7626953 0.5195313 0.3847656
vn 0.7626953 0.5195313 0.3847656
vn 0.7626953 0.5195313 0.3847656
vn 0.7626953 0.5195313 0.3847656
vn -0.09185791 0.9233398 0.3730469
vn -0.09185791 0.9233398 0.3730469
vn -0.09185791 0.9233398 0.3730469
vn -0.09185791 0.9233398 0.3730469
vn -0.8823242 0.4089355 0.2337646
vn -0.8823242 0.4089355 0.2337646
vn -0.8823242 0.4089355 0.2337646
vn -0.8823242 0.4089355 0.2337646
vn -0.8232422 -0.5595703 0.0947876
vn -0.8232422 -0.5595703 0.0947876
vn -0.8232422 -0.5595703 0.0947876
vn -0.8232422 -0.5595703 0.0947876
g Object2264_0
f 3/3/3 2/2/2 1/1/1
f 4/4/4 3/3/3 1/1/1
f 3/3/3 4/4/4 5/5/5
f 6/6/6 3/3/3 5/5/5
f 9/9/9 8/8/8 7/7/7
f 10/10/10 9/9/9 7/7/7
f 13/13/13 12/12/12 11/11/11
f 14/14/14 13/13/13 11/11/11
f 17/17/17 16/16/16 15/15/15
f 18/18/18 17/17/17 15/15/15
f 21/21/21 20/20/20 19/19/19
f 22/22/22 21/21/21 19/19/19
f 25/25/25 24/24/24 23/23/23
f 26/26/26 25/25/25 23/23/23
f 29/29/29 28/28/28 27/27/27
f 30/30/30 29/29/29 27/27/27
f 33/33/33 32/32/32 31/31/31
f 34/34/34 33/33/33 31/31/31
f 33/33/33 34/34/34 35/35/35
f 36/36/36 33/33/33 35/35/35
f 39/39/39 38/38/38 37/37/37
f 40/40/40 39/39/39 37/37/37
f 43/43/43 42/42/42 41/41/41
f 44/44/44 43/43/43 41/41/41
f 47/47/47 46/46/46 45/45/45
f 48/48/48 47/47/47 45/45/45
f 51/51/51 50/50/50 49/49/49
f 52/52/52 51/51/51 49/49/49
f 55/55/55 54/54/54 53/53/53
f 56/56/56 55/55/55 53/53/53
f 59/59/59 58/58/58 57/57/57
f 60/60/60 59/59/59 57/57/57
f 63/63/63 62/62/62 61/61/61
f 64/64/64 63/63/63 61/61/61
f 63/63/63 64/64/64 65/65/65
f 66/66/66 63/63/63 65/65/65
f 69/69/69 68/68/68 67/67/67
f 70/70/70 69/69/69 67/67/67
f 73/73/73 72/72/72 71/71/71
f 74/74/74 73/73/73 71/71/71
f 77/77/77 76/76/76 75/75/75
f 78/78/78 77/77/77 75/75/75
f 81/81/81 80/80/80 79/79/79
f 82/82/82 81/81/81 79/79/79
f 85/85/85 84/84/84 83/83/83
f 86/86/86 85/85/85 83/83/83
f 89/89/89 88/88/88 87/87/87
f 90/90/90 89/89/89 87/87/87
