g Tree_04
v 0.009208909 -0.2441423 -0.01716465
v 0.02293129 -0.2441423 -0.01030918
v 0.02293175 -0.07807322 -0.01030948
v 0.009209977 -0.07807322 -0.01716465
v 0.02778786 -0.07807322 0.004241298
v -0.005341719 -0.2441422 -0.01230915
v 0.0277874 -0.2441423 0.004241451
v -0.005341261 -0.07807322 -0.01230915
v 0.02093209 -0.07807322 0.01796383
v -0.01219764 -0.2441422 0.001413387
v 0.02093147 -0.2441423 0.01796398
v -0.01219719 -0.07807322 0.001413234
v 0.006380541 -0.07807322 0.02281963
v -0.007342604 -0.2441422 0.01596401
v 0.006380083 -0.2441423 0.02281963
v -0.007341535 -0.07807322 0.01596432
v -0.09262245 -0.1167787 0.05347546
v -0.007325819 -0.1755805 0.004229091
v -0.008459242 -0.1755805 -4.92535E-07
v -0.1069512 -0.1167787 -3.477139E-08
v -0.007325819 -0.1755805 -0.004230076
v -0.05347557 -0.1167787 0.09262233
v -0.004229658 -0.1755805 0.007325405
v -0.09262245 -0.1167787 -0.05347568
v -0.004229658 -0.1755805 -0.007326389
v 7.835947E-08 -0.1167787 0.1069511
v 7.835947E-08 -0.1755805 0.008458675
v -0.05347557 -0.1167787 -0.09262256
v 7.835947E-08 -0.1755805 -0.008459659
v 0.05347557 -0.1167787 0.09262233
v 0.004229662 -0.1755805 0.007325405
v -7.422842E-08 -0.1167787 -0.1069512
v 0.004229509 -0.1755805 -0.007326389
v 0.09262245 -0.1167787 0.05347546
v 0.007325975 -0.1755805 0.004229091
v 0.05347557 -0.1167787 -0.09262256
v 0.007325975 -0.1755805 -0.004230076
v 0.1069512 -0.1167787 -3.477139E-08
v 0.008459093 -0.1755805 -4.92535E-07
v 0.09262245 -0.1167787 -0.05347568
v 7.835947E-08 -0.02796298 0.1347409
v 0.06737053 -0.02796298 0.1166891
v 0.1166889 -0.02796298 0.06737041
v 0.1347408 -0.02796298 1.178165E-07
v 0.1166891 -0.02796298 -0.06737033
v 0.06737038 -0.02796298 -0.1166889
v -0.06737038 -0.02796301 0.1166891
v -7.422842E-08 -0.02796298 -0.1347408
v -0.1166891 -0.02796301 0.06737057
v -0.06737053 -0.02796301 -0.1166889
v -0.1347408 -0.02796298 1.178165E-07
v -0.1166889 -0.02796298 -0.06737033
v 0.104392 0.1272148 -0.06027225
v 0.06027031 0.1272148 -0.1043938
v -8.371679E-07 0.1272148 -0.1205434
v -0.06027214 0.1272148 -0.1043938
v -0.1043938 0.1272148 -0.06027225
v -0.1205434 0.1272148 -9.502987E-07
v 0.1205416 0.1272148 -9.502987E-07
v -0.1043937 0.1272148 0.06027035
v 0.104392 0.1272148 0.06027035
v -0.06027199 0.1272148 0.1043919
v 0.06027046 0.1272148 0.1043919
v -8.371679E-07 0.1272148 0.1205416
v -0.07312278 0.3085062 -2.171002E-06
v -0.06332634 0.3085062 0.03655834
v -0.03656227 0.3085062 0.06332242
v -1.905283E-06 0.3085062 0.07311871
v 0.03655861 0.3085062 0.06332242
v 0.06332268 0.3085062 0.03655834
v -0.06332634 0.3085062 -0.03656254
v 0.07311897 0.3085062 -2.171002E-06
v -0.03656242 0.3085062 -0.0633266
v 0.06332268 0.3085062 -0.03656254
v -1.905283E-06 0.3085062 -0.0731229
v 0.03655846 0.3085062 -0.0633266
v 0.01931267 0.4379506 0.01114849
v 0.0223008 0.4379506 -3.086529E-06
v 0.01931267 0.4379506 -0.01115482
v 0.01114907 0.4379506 -0.01931842
v -2.515635E-06 0.4545006 -3.086529E-06
v 0.01114907 0.4379506 0.0193121
v -2.515635E-06 0.4379506 -0.0223064
v -0.01115425 0.4379506 -0.01931842
v -2.668223E-06 0.4379506 0.02230023
v -0.01931785 0.4379506 -0.01115482
v -0.01115425 0.4379506 0.0193121
v -0.02230583 0.4379506 -3.086529E-06
v -0.01931785 0.4379506 0.01114849
vn 0.0705291 0 -0.9975097
vn 0.7552286 0 -0.6554614
vn 0.7552286 0 -0.6554614
vn 0.07055946 0 -0.9975076
vn 0.9975097 0 0.0705291
vn -0.6554289 0 -0.7552568
vn 0.9975097 0 0.0705291
vn -0.6554289 0 -0.7552568
vn 0.6554289 0 0.7552568
vn -0.9975076 0 -0.07055946
vn 0.6554289 0 0.7552568
vn -0.9975076 0 -0.07055946
vn -0.0705291 0 0.9975097
vn -0.7552418 0 0.6554464
vn -0.0705291 0 0.9975097
vn -0.7552286 0 0.6554614
vn -0.6978817 -0.5921329 0.4029141
vn -0.4439308 -0.8586245 0.2562994
vn -0.5126004 -0.8586273 0
vn -0.805836 -0.5921388 0
vn -0.4439308 -0.8586245 -0.2562994
vn -0.402914 -0.5921329 0.6978818
vn -0.2562993 -0.8586245 0.4439308
vn -0.6978817 -0.5921329 -0.402914
vn -0.2562994 -0.8586245 -0.4439308
vn 0 -0.5921387 0.805836
vn 0 -0.8586273 0.5126004
vn -0.402914 -0.5921329 -0.6978818
vn 0 -0.8586273 -0.5126004
vn 0.4029141 -0.5921329 0.6978818
vn 0.2562995 -0.8586245 0.4439308
vn 0 -0.5921387 -0.805836
vn 0.2562994 -0.8586245 -0.4439308
vn 0.6978818 -0.5921327 0.402914
vn 0.4439309 -0.8586245 0.2562994
vn 0.402914 -0.5921329 -0.6978818
vn 0.4439309 -0.8586245 -0.2562994
vn 0.8058361 -0.5921386 0
vn 0.5126005 -0.8586273 0
vn 0.6978818 -0.5921327 -0.402914
vn 0 -0.102543 0.9947286
vn 0.4973674 -0.1025437 0.8614584
vn 0.8614584 -0.1025436 0.4973672
vn 0.9947286 -0.102543 0
vn 0.8614584 -0.1025436 -0.4973674
vn 0.4973672 -0.1025437 -0.8614584
vn -0.4973672 -0.1025437 0.8614584
vn 0 -0.102543 -0.9947286
vn -0.8614584 -0.1025437 0.4973674
vn -0.4973674 -0.1025437 -0.8614584
vn -0.9947286 -0.1025431 0
vn -0.8614584 -0.1025437 -0.4973672
vn 0.8533648 0.1703922 -0.4926815
vn 0.4926814 0.1703922 -0.8533648
vn 0 0.1703893 -0.9853769
vn -0.4926687 0.1703877 -0.8533731
vn -0.8533731 0.1703877 -0.4926686
vn -0.9853769 0.1703892 0
vn 0.9853716 0.1704189 0
vn -0.8533648 0.1703921 0.4926815
vn 0.8533604 0.1704218 0.4926789
vn -0.4926789 0.1704218 0.8533604
vn 0.492679 0.1704219 0.8533604
vn 0 0.1704189 0.9853716
vn -0.9517325 0.3069287 0
vn -0.8242304 0.306931 0.4758545
vn -0.47585 0.3069586 0.8242227
vn 0 0.3069564 0.9517236
vn 0.47585 0.3069586 0.8242227
vn 0.8242227 0.3069587 0.47585
vn -0.8242304 0.306931 -0.4758544
vn 0.9517236 0.3069565 0
vn -0.4758545 0.306931 -0.8242304
vn 0.8242227 0.3069586 -0.47585
vn 0 0.3069288 -0.9517325
vn 0.4758544 0.306931 -0.8242304
vn 0.7013345 0.5866734 0.4049002
vn 0.8098261 0.58667 0
vn 0.7013345 0.5866735 -0.4049002
vn 0.4049001 0.5866734 -0.7013346
vn 0 1 0
vn 0.4049002 0.5866733 0.7013345
vn 0 0.5866699 -0.8098261
vn -0.4049002 0.5866733 -0.7013345
vn 0 0.5866699 0.8098261
vn -0.7013346 0.5866733 -0.4049001
vn -0.4049002 0.5866733 0.7013345
vn -0.8098262 0.5866699 0
vn -0.7013345 0.5866733 0.4049002
g Tree_04_0
f 3/3/3 2/2/2 1/1/1
f 4/4/4 3/3/3 1/1/1
f 3/3/3 5/5/5 2/2/2
f 4/4/4 1/1/1 6/6/6
f 5/5/5 7/7/7 2/2/2
f 8/8/8 4/4/4 6/6/6
f 5/5/5 9/9/9 7/7/7
f 8/8/8 6/6/6 10/10/10
f 9/9/9 11/11/11 7/7/7
f 12/12/12 8/8/8 10/10/10
f 9/9/9 13/13/13 11/11/11
f 12/12/12 10/10/10 14/14/14
f 13/13/13 15/15/15 11/11/11
f 16/16/16 12/12/12 14/14/14
f 16/16/16 14/14/14 15/15/15
f 13/13/13 16/16/16 15/15/15
f 19/19/19 18/18/18 17/17/17
f 20/20/20 19/19/19 17/17/17
f 21/21/21 19/19/19 20/20/20
f 17/17/17 18/18/18 22/22/22
f 18/18/18 23/23/23 22/22/22
f 24/24/24 21/21/21 20/20/20
f 25/25/25 21/21/21 24/24/24
f 22/22/22 23/23/23 26/26/26
f 23/23/23 27/27/27 26/26/26
f 28/28/28 25/25/25 24/24/24
f 29/29/29 25/25/25 28/28/28
f 26/26/26 27/27/27 30/30/30
f 27/27/27 31/31/31 30/30/30
f 32/32/32 29/29/29 28/28/28
f 33/33/33 29/29/29 32/32/32
f 30/30/30 31/31/31 34/34/34
f 31/31/31 35/35/35 34/34/34
f 36/36/36 33/33/33 32/32/32
f 37/37/37 33/33/33 36/36/36
f 34/34/34 35/35/35 38/38/38
f 35/35/35 39/39/39 38/38/38
f 39/39/39 37/37/37 40/40/40
f 40/40/40 37/37/37 36/36/36
f 38/38/38 39/39/39 40/40/40
f 41/41/41 26/26/26 30/30/30
f 42/42/42 30/30/30 34/34/34
f 42/42/42 41/41/41 30/30/30
f 43/43/43 34/34/34 38/38/38
f 43/43/43 42/42/42 34/34/34
f 44/44/44 38/38/38 40/40/40
f 44/44/44 43/43/43 38/38/38
f 45/45/45 40/40/40 36/36/36
f 45/45/45 44/44/44 40/40/40
f 46/46/46 36/36/36 32/32/32
f 46/46/46 45/45/45 36/36/36
f 41/41/41 47/47/47 26/26/26
f 47/47/47 22/22/22 26/26/26
f 48/48/48 46/46/46 32/32/32
f 48/48/48 32/32/32 28/28/28
f 47/47/47 49/49/49 22/22/22
f 49/49/49 17/17/17 22/22/22
f 50/50/50 48/48/48 28/28/28
f 50/50/50 28/28/28 24/24/24
f 49/49/49 51/51/51 17/17/17
f 51/51/51 20/20/20 17/17/17
f 52/52/52 24/24/24 20/20/20
f 52/52/52 50/50/50 24/24/24
f 51/51/51 52/52/52 20/20/20
f 53/53/53 45/45/45 46/46/46
f 54/54/54 46/46/46 48/48/48
f 54/54/54 53/53/53 46/46/46
f 55/55/55 48/48/48 50/50/50
f 55/55/55 54/54/54 48/48/48
f 56/56/56 50/50/50 52/52/52
f 56/56/56 55/55/55 50/50/50
f 57/57/57 52/52/52 51/51/51
f 57/57/57 56/56/56 52/52/52
f 58/58/58 51/51/51 49/49/49
f 58/58/58 57/57/57 51/51/51
f 53/53/53 59/59/59 45/45/45
f 59/59/59 44/44/44 45/45/45
f 60/60/60 58/58/58 49/49/49
f 60/60/60 49/49/49 47/47/47
f 59/59/59 61/61/61 44/44/44
f 61/61/61 43/43/43 44/44/44
f 62/62/62 60/60/60 47/47/47
f 62/62/62 47/47/47 41/41/41
f 61/61/61 63/63/63 43/43/43
f 63/63/63 42/42/42 43/43/43
f 64/64/64 41/41/41 42/42/42
f 64/64/64 62/62/62 41/41/41
f 63/63/63 64/64/64 42/42/42
f 58/58/58 65/65/65 57/57/57
f 60/60/60 66/66/66 58/58/58
f 66/66/66 65/65/65 58/58/58
f 62/62/62 67/67/67 60/60/60
f 67/67/67 66/66/66 60/60/60
f 64/64/64 68/68/68 62/62/62
f 68/68/68 67/67/67 62/62/62
f 63/63/63 69/69/69 64/64/64
f 69/69/69 68/68/68 64/64/64
f 61/61/61 70/70/70 63/63/63
f 70/70/70 69/69/69 63/63/63
f 65/65/65 71/71/71 57/57/57
f 57/57/57 71/71/71 56/56/56
f 72/72/72 70/70/70 61/61/61
f 59/59/59 72/72/72 61/61/61
f 71/71/71 73/73/73 56/56/56
f 56/56/56 73/73/73 55/55/55
f 74/74/74 72/72/72 59/59/59
f 53/53/53 74/74/74 59/59/59
f 73/73/73 75/75/75 55/55/55
f 55/55/55 75/75/75 54/54/54
f 54/54/54 76/76/76 53/53/53
f 76/76/76 74/74/74 53/53/53
f 75/75/75 76/76/76 54/54/54
f 70/70/70 77/77/77 69/69/69
f 72/72/72 78/78/78 70/70/70
f 78/78/78 77/77/77 70/70/70
f 74/74/74 79/79/79 72/72/72
f 79/79/79 78/78/78 72/72/72
f 76/76/76 80/80/80 74/74/74
f 80/80/80 79/79/79 74/74/74
f 79/79/79 81/81/81 78/78/78
f 78/78/78 81/81/81 77/77/77
f 80/80/80 81/81/81 79/79/79
f 77/77/77 81/81/81 82/82/82
f 77/77/77 82/82/82 69/69/69
f 83/83/83 81/81/81 80/80/80
f 83/83/83 80/80/80 76/76/76
f 75/75/75 83/83/83 76/76/76
f 69/69/69 82/82/82 68/68/68
f 84/84/84 83/83/83 75/75/75
f 84/84/84 81/81/81 83/83/83
f 73/73/73 84/84/84 75/75/75
f 82/82/82 85/85/85 68/68/68
f 82/82/82 81/81/81 85/85/85
f 68/68/68 85/85/85 67/67/67
f 86/86/86 84/84/84 73/73/73
f 86/86/86 81/81/81 84/84/84
f 71/71/71 86/86/86 73/73/73
f 85/85/85 87/87/87 67/67/67
f 85/85/85 81/81/81 87/87/87
f 67/67/67 87/87/87 66/66/66
f 88/88/88 86/86/86 71/71/71
f 88/88/88 81/81/81 86/86/86
f 65/65/65 88/88/88 71/71/71
f 87/87/87 89/89/89 66/66/66
f 87/87/87 81/81/81 89/89/89
f 89/89/89 81/81/81 88/88/88
f 89/89/89 88/88/88 65/65/65
f 66/66/66 89/89/89 65/65/65
